<?xml version="1.0" encoding="UTF-8"?>
<svg width="48" height="48" viewBox="0 0 24 24" fill="none" xmlns="http://www.w3.org/2000/svg">
    <!-- Sky background gradient -->
    <defs>
        <linearGradient id="skyGradient" x1="12" y1="2" x2="12" y2="22" gradientUnits="userSpaceOnUse">
            <stop stop-color="#87CEEB"/>
            <stop offset="1" stop-color="#E0F7FA"/>
        </linearGradient>
    </defs>
    
    <!-- Sky background -->
    <rect width="24" height="24" fill="url(#skyGradient)"/>
    
    <!-- Sun -->
    <circle cx="12" cy="8" r="4" fill="#FFD700"/>
    <g fill="#FFD700">
        <path d="M12 2V4M12 20V22M4 12H2M22 12H20M5.64 5.64L4.22 4.22M19.78 19.78L18.36 18.36M5.64 18.36L4.22 19.78M19.78 4.22L18.36 5.64" stroke="#FFA500" stroke-width="0.5"/>
    </g>
    
    <!-- Cloud -->
    <path d="M18 12.5C18 10.567 16.433 9 14.5 9C13.48 9 12.56 9.43 11.93 10.11C11.6 9.5 10.96 9.1 10.2 9.1C8.88 9.1 7.8 10.18 7.8 11.5C0 12.5 7 15 18 12.5Z" fill="#FFFFFF" stroke="#E0E0E0" stroke-width="0.5"/>
    <path d="M19.5 11.5C19.5 9.57 17.93 8 16 8C14.8 8 13.73 8.64 13.17 9.61C12.84 9.23 12.36 9 11.83 9C10.73 9 9.83 9.9 9.83 11C9.83 11.07 9.84 11.14 9.84 11.21C9.55 11.07 9.23 11 8.89 11C7.79 11 6.89 11.9 6.89 13C6.89 13.15 6.91 13.3 6.94 13.44C6.97 13.3 7 13.15 7 13C7 10.24 9.24 8 12 8C13.8 8 15.36 8.89 16.22 10.25C17.38 10.08 18.5 10.5 19.2 11.4C19.4 11.7 19.5 12 19.5 12.4V11.5Z" fill="#F5F5F5" stroke="#E0E0E0" stroke-width="0.5"/>
    
    <!-- Rainbow -->
    <path d="M4 16C6 18 8 19 12 19C16 19 18 18 20 16" stroke="url(#rainbowGradient)" stroke-width="2" stroke-linecap="round" opacity="0.8">
        <animate attributeName="d" values="M4 16C6 18 8 19 12 19C16 19 18 18 20 16; M3 16C6 18 9 19 12 19C15 19 18 18 21 16; M4 16C6 18 8 19 12 19C16 19 18 18 20 16" dur="4s" repeatCount="indefinite"/>
    </path>
    
    <defs>
        <linearGradient id="rainbowGradient" x1="4" y1="16" x2="20" y2="16" gradientUnits="userSpaceOnUse">
            <stop offset="0%" stop-color="#FF0000"/>
            <stop offset="20%" stop-color="#FFA500"/>
            <stop offset="40%" stop-color="#FFFF00"/>
            <stop offset="60%" stop-color="#008000"/>
            <stop offset="80%" stop-color="#0000FF"/>
            <stop offset="100%" stop-color="#4B0082"/>
        </linearGradient>
    </defs>
</svg>
